<?xml version="1.0" encoding="UTF-8" standalone="no"?>
<!-- Created with Inkscape (http://www.inkscape.org/) -->

<svg
   width="124.45714mm"
   height="83.644897mm"
   viewBox="0 0 124.45714 83.644897"
   version="1.1"
   id="svg5"
   inkscape:version="1.1 (c4e8f9e, 2021-05-24)"
   sodipodi:docname="cartao.svg"
   xmlns:inkscape="http://www.inkscape.org/namespaces/inkscape"
   xmlns:sodipodi="http://sodipodi.sourceforge.net/DTD/sodipodi-0.dtd"
   xmlns="http://www.w3.org/2000/svg"
   xmlns:svg="http://www.w3.org/2000/svg">
  <sodipodi:namedview
     id="namedview7"
     pagecolor="#ffffff"
     bordercolor="#999999"
     borderopacity="1"
     inkscape:pageshadow="0"
     inkscape:pageopacity="0"
     inkscape:pagecheckerboard="0"
     inkscape:document-units="mm"
     showgrid="false"
     inkscape:zoom="0.65477694"
     inkscape:cx="313.08372"
     inkscape:cy="356.61"
     inkscape:window-width="1440"
     inkscape:window-height="847"
     inkscape:window-x="0"
     inkscape:window-y="25"
     inkscape:window-maximized="0"
     inkscape:current-layer="layer1" />
  <defs
     id="defs2">
    <rect
       x="42.762653"
       y="607.84058"
       width="325.30161"
       height="164.94167"
       id="rect2672" />
  </defs>
  <g
     inkscape:label="Camada 1"
     inkscape:groupmode="layer"
     id="layer1"
     transform="translate(-22.224489,-54.146938)">
    <g
       id="g3053">
      <rect
         style="fill:#b3b3b3;stroke-width:0.264583"
         id="rect846"
         width="124.45714"
         height="83.644897"
         x="22.224489"
         y="54.146938"
         ry="4.8489757" />
      <rect
         style="fill:#e6e6e6;stroke-width:0.292936"
         id="rect1076"
         width="23.840816"
         height="15.355102"
         x="31.114285"
         y="86.473473"
         ry="3.6367347" />
      <g
         aria-label="Brand"
         transform="matrix(0.26458333,0,-0.10429227,0.26458333,159.39272,-38.791837)"
         id="text2670"
         style="font-size:40px;line-height:1.25;white-space:pre;shape-inside:url(#rect2672);fill:#ffffff">
        <path
           d="m 68.601562,635.38774 q 0,2.16797 -0.820312,3.82813 -0.820313,1.66016 -2.207031,2.73437 -1.640625,1.28907 -3.613282,1.83594 -1.953125,0.54688 -4.980468,0.54688 h -10.3125 v -29.08203 h 8.613281 q 3.183594,0 4.765625,0.23437 1.582031,0.23438 3.027344,0.97656 1.601562,0.83985 2.324218,2.16797 0.722657,1.3086 0.722657,3.14453 0,2.07032 -1.054688,3.53516 -1.054687,1.44531 -2.8125,2.32422 v 0.15625 q 2.949219,0.60547 4.648438,2.59765 1.699218,1.97266 1.699218,5 z m -6.503906,-13.10546 q 0,-1.05469 -0.351562,-1.77735 -0.351563,-0.72265 -1.132813,-1.17187 -0.917969,-0.52735 -2.226562,-0.64453 -1.308594,-0.13672 -3.242188,-0.13672 h -4.609375 v 8.39843 h 5 q 1.816406,0 2.890625,-0.17578 1.074219,-0.19531 1.992188,-0.78125 0.917968,-0.58593 1.289062,-1.5039 0.390625,-0.9375 0.390625,-2.20703 z m 2.480469,13.26171 q 0,-1.75781 -0.527344,-2.79296 -0.527344,-1.03516 -1.914062,-1.75782 -0.9375,-0.48828 -2.285157,-0.625 -1.328125,-0.15625 -3.242187,-0.15625 h -6.074219 v 10.82032 h 5.117188 q 2.539062,0 4.160156,-0.25391 1.621094,-0.27344 2.65625,-0.97656 1.09375,-0.76172 1.601562,-1.73828 0.507813,-0.97657 0.507813,-2.51954 z"
           id="path3016" />
        <path
           d="m 87.410156,626.52056 h -0.195312 q -0.820313,-0.19532 -1.601563,-0.27344 -0.761719,-0.0977 -1.816406,-0.0977 -1.699219,0 -3.28125,0.76172 -1.582031,0.74219 -3.046875,1.9336 v 15.48828 h -3.671875 v -21.81641 h 3.671875 v 3.22266 q 2.1875,-1.75782 3.847656,-2.48047 1.679688,-0.74219 3.417969,-0.74219 0.957031,0 1.386719,0.0586 0.429687,0.0391 1.289062,0.17579 z"
           id="path3018" />
        <path
           d="m 107.85938,644.33306 h -3.65235 v -2.32422 q -0.48828,0.33203 -1.32812,0.9375 -0.82032,0.58594 -1.60157,0.9375 -0.91796,0.44922 -2.109371,0.74219 -1.191407,0.3125 -2.792969,0.3125 -2.949219,0 -5,-1.95313 -2.050781,-1.95312 -2.050781,-4.98047 0,-2.48047 1.054687,-4.0039 1.074219,-1.54297 3.046875,-2.42188 1.992188,-0.87891 4.785156,-1.19141 2.792973,-0.3125 5.996093,-0.46875 v -0.5664 q 0,-1.25 -0.44922,-2.07031 -0.42968,-0.82032 -1.25,-1.28907 -0.78125,-0.44922 -1.875,-0.60547 -1.093748,-0.15625 -2.285154,-0.15625 -1.445312,0 -3.222656,0.39063 -1.777344,0.37109 -3.671875,1.09375 h -0.195313 v -3.73047 q 1.074219,-0.29297 3.105469,-0.64453 2.03125,-0.35156 4.003906,-0.35156 2.304693,0 4.003903,0.39062 1.71875,0.3711 2.96875,1.28906 1.23047,0.89844 1.875,2.32422 0.64454,1.42578 0.64454,3.53516 z m -3.65235,-5.3711 v -6.07422 q -1.67969,0.0977 -3.96484,0.29297 -2.265628,0.19532 -3.593753,0.56641 -1.582031,0.44922 -2.558593,1.40625 -0.976563,0.9375 -0.976563,2.59766 0,1.875 1.132813,2.83203 1.132812,0.9375 3.457031,0.9375 1.933594,0 3.535155,-0.74219 1.60156,-0.76172 2.96875,-1.81641 z"
           id="path3020" />
        <path
           d="m 133.21094,644.33306 h -3.67188 v -12.42188 q 0,-1.5039 -0.17578,-2.8125 -0.17578,-1.32812 -0.64453,-2.07031 -0.48828,-0.82031 -1.40625,-1.21094 -0.91797,-0.41015 -2.38281,-0.41015 -1.50391,0 -3.14453,0.74218 -1.64063,0.74219 -3.14453,1.89453 v 16.28907 h -3.67188 v -21.81641 h 3.67188 v 2.42188 q 1.71875,-1.42579 3.55468,-2.22657 1.83594,-0.80078 3.76953,-0.80078 3.53516,0 5.39063,2.12891 1.85547,2.1289 1.85547,6.13281 z"
           id="path3022" />
        <path
           d="m 157.97656,644.33306 h -3.67187 v -2.28516 q -1.58203,1.36719 -3.30078,2.12891 -1.71875,0.76172 -3.73047,0.76172 -3.90625,0 -6.21094,-3.00782 -2.28516,-3.00781 -2.28516,-8.33984 0,-2.77344 0.78125,-4.94141 0.80078,-2.16797 2.14844,-3.6914 1.32813,-1.48438 3.08594,-2.26563 1.77734,-0.78125 3.67187,-0.78125 1.71875,0 3.04688,0.3711 1.32812,0.35156 2.79297,1.11328 v -9.45313 h 3.67187 z m -3.67187,-5.3711 v -12.51953 q -1.48438,-0.66406 -2.65625,-0.91797 -1.17188,-0.2539 -2.5586,-0.2539 -3.08593,0 -4.80468,2.14843 -1.71875,2.14844 -1.71875,6.09375 0,3.88672 1.32812,5.91797 1.32813,2.01172 4.25781,2.01172 1.5625,0 3.16407,-0.68359 1.60156,-0.70313 2.98828,-1.79688 z"
           id="path3024" />
      </g>
    </g>
  </g>
</svg>
