<?xml version="1.0" encoding="UTF-8" standalone="no"?>
<!-- Created with Inkscape (http://www.inkscape.org/) -->

<svg
   width="58.448769mm"
   height="41.087933mm"
   viewBox="0 0 58.448769 41.087933"
   version="1.1"
   id="svg5"
   inkscape:version="1.1 (c4e8f9e, 2021-05-24)"
   sodipodi:docname="logo_banco_digital.svg"
   xmlns:inkscape="http://www.inkscape.org/namespaces/inkscape"
   xmlns:sodipodi="http://sodipodi.sourceforge.net/DTD/sodipodi-0.dtd"
   xmlns="http://www.w3.org/2000/svg"
   xmlns:svg="http://www.w3.org/2000/svg">
  <sodipodi:namedview
     id="namedview7"
     pagecolor="#ffffff"
     bordercolor="#999999"
     borderopacity="1"
     inkscape:pageshadow="0"
     inkscape:pageopacity="0"
     inkscape:pagecheckerboard="0"
     inkscape:document-units="mm"
     showgrid="false"
     inkscape:zoom="1.3716107"
     inkscape:cx="144.35583"
     inkscape:cy="158.57269"
     inkscape:window-width="1440"
     inkscape:window-height="847"
     inkscape:window-x="1743"
     inkscape:window-y="127"
     inkscape:window-maximized="0"
     inkscape:current-layer="layer1" />
  <defs
     id="defs2">
    <rect
       x="-48.871605"
       y="293.22964"
       width="371.11874"
       height="207.70432"
       id="rect2750" />
  </defs>
  <g
     inkscape:label="Camada 1"
     inkscape:groupmode="layer"
     id="layer1"
     transform="translate(-39.105663,-57.653525)">
    <path
       style="fill:#000000;stroke-width:0.264583"
       id="path1188"
       d="" />
    <path
       style="fill:#000000;stroke-width:0.264583"
       id="path1132"
       d="" />
    <g
       id="g6789">
      <rect
         style="fill:#ffffff;fill-opacity:1;stroke-width:0.264583"
         id="rect6766"
         width="58.448616"
         height="41.087639"
         x="39.105816"
         y="57.653683"
         rx="4.6295934"
         ry="4.6295934" />
      <path
         id="rect6567"
         style="fill:#000080;fill-opacity:1;stroke-width:0.999999"
         d="m 13.123047,-166.22852 c -9.6937125,0 -17.498047,7.80434 -17.498047,17.49805 v 120.296876 c 0,9.693713 7.8043345,17.498047 17.498047,17.498047 H 199.03516 c 9.69371,0 17.49804,-7.804334 17.49804,-17.498047 V -148.73047 c 0,-9.69371 -7.80433,-17.49805 -17.49804,-17.49805 z m 12.789062,25.0254 h 16.058594 c 3.200201,0 5.789634,0.71499 7.771485,2.14453 1.998095,1.41328 2.998046,3.42038 2.998046,6.01953 0,1.49451 -0.308483,2.75197 -0.925781,3.77539 -0.617298,1.02341 -1.404845,1.82011 -2.363281,2.38867 -0.958436,0.55232 -1.958388,0.89348 -2.998047,1.02344 v 0.46289 c 1.104638,0.0325 2.249686,0.32463 3.435547,0.87695 1.185861,0.55232 2.193006,1.40522 3.021484,2.5586 0.828479,1.15337 1.244141,2.65591 1.244141,4.50781 0,2.04683 -0.537226,3.77812 -1.609375,5.1914 -1.072149,1.41329 -2.485809,2.48384 -4.240234,3.21485 -1.754426,0.73101 -3.645197,1.09765 -5.675782,1.09765 H 25.912109 Z m 105.777341,6.48242 c 2.45295,0 4.58161,0.45553 6.38477,1.36523 1.80316,0.9097 3.20048,2.19265 4.1914,3.84961 0.99093,1.64071 1.49353,3.58965 1.50977,5.84766 h -8.74805 c -0.0162,-0.71477 -0.16134,-1.34807 -0.4375,-1.90039 -0.25991,-0.56857 -0.61022,-1.00776 -1.04882,-1.31641 -0.43861,-0.32489 -0.94121,-0.48633 -1.50977,-0.48633 -0.99093,0 -1.78762,0.48626 -2.38867,1.46094 -0.58481,0.95844 -0.87696,2.24139 -0.87696,3.84961 v 1.46289 c 0,1.86814 0.28496,3.30533 0.85352,4.3125 0.56856,1.00717 1.37964,1.51172 2.43555,1.51172 0.64978,0 1.18701,-0.13071 1.60937,-0.39063 0.43861,-0.27616 0.77062,-0.68267 0.99805,-1.21875 0.22742,-0.55232 0.34899,-1.22549 0.36523,-2.02148 h 8.74805 c -0.0162,2.30674 -0.51165,4.27921 -1.48633,5.91992 -0.95843,1.62447 -2.33942,2.87669 -4.14258,3.75391 -1.80315,0.86096 -3.97169,1.29101 -6.50586,1.29101 -2.68037,0 -4.97961,-0.52089 -6.89648,-1.56054 -1.91687,-1.03966 -3.38674,-2.52587 -4.41016,-4.45899 -1.02341,-1.94936 -1.53515,-4.28847 -1.53515,-7.01758 v -1.55859 c 0,-2.5829 0.52808,-4.82594 1.58398,-6.72656 1.05591,-1.90063 2.55126,-3.3705 4.48438,-4.41016 1.93311,-1.03966 4.20687,-1.55859 6.82226,-1.55859 z m 28.84961,0 c 2.7616,0 5.11705,0.54442 7.06641,1.63281 1.9656,1.07215 3.46096,2.5747 4.48437,4.50781 1.03966,1.93312 1.5586,4.167 1.5586,6.70117 v 1.31446 c 0,2.81033 -0.51894,5.19845 -1.5586,7.16406 -1.02341,1.94936 -2.51877,3.43557 -4.48437,4.45898 -1.94936,1.00717 -4.30481,1.51172 -7.06641,1.51172 -2.77784,0 -5.14963,-0.50455 -7.11523,-1.51172 -1.96561,-1.02341 -3.46816,-2.50962 -4.50781,-4.45898 -1.03966,-1.94936 -1.5586,-4.32115 -1.5586,-7.11523 v -1.29102 c 0,-2.53417 0.51894,-4.76806 1.5586,-6.70117 1.03965,-1.94936 2.5422,-3.46825 4.50781,-4.55664 1.9656,-1.10464 4.33739,-1.65625 7.11523,-1.65625 z m -90.181638,0.14648 c 2.241765,0 4.272393,0.29934 6.091797,0.90039 1.819403,0.60105 3.265742,1.59186 4.33789,2.97266 1.088394,1.3808 1.632813,3.24999 1.632813,5.60547 v 17.15429 h -9.210938 v -3.07031 h -0.488281 c -0.211181,0.53608 -0.575873,1.07135 -1.095703,1.60742 -0.51983,0.51983 -1.218491,0.95903 -2.095703,1.31641 -0.877213,0.34114 -1.966051,0.51172 -3.265625,0.51172 -2.566659,0 -4.662642,-0.68952 -6.28711,-2.07031 -1.624467,-1.3808 -2.435546,-3.34803 -2.435546,-5.89844 0,-2.45295 0.820225,-4.40188 2.460937,-5.84766 1.640712,-1.44577 4.003355,-2.16797 7.089844,-2.16797 h 5.628906 v -1.92578 c 0,-0.69852 -0.22679,-1.23379 -0.681641,-1.60742 -0.438606,-0.38987 -1.032041,-0.58594 -1.779296,-0.58594 -0.51983,0 -0.973409,0.098 -1.363282,0.29297 -0.389872,0.19494 -0.691163,0.47074 -0.902343,0.82813 -0.211181,0.34113 -0.316407,0.73131 -0.316407,1.16992 h -9.210937 c 0.03249,-1.02342 0.226601,-2.07043 0.583984,-3.14258 0.373628,-1.07215 0.990595,-2.06295 1.851563,-2.97266 0.877212,-0.92594 2.080422,-1.66643 3.607422,-2.21875 1.543244,-0.56856 3.492178,-0.85156 5.847656,-0.85156 z m 35.234378,0 c 2.61539,0 4.68784,0.80389 6.21484,2.41211 1.527,1.59198 2.28906,3.99645 2.28906,7.21289 v 17.00781 h -9.86718 v -14.52343 c 0,-1.15338 -0.17973,-2.01347 -0.53711,-2.58204 -0.35739,-0.5848 -0.78024,-0.97498 -1.26758,-1.16992 -0.48734,-0.19493 -0.93373,-0.29297 -1.33985,-0.29297 -0.51983,0 -1.03157,0.13791 -1.535152,0.41407 -0.48734,0.27616 -0.893856,0.7245 -1.21875,1.34179 -0.308649,0.60106 -0.46289,1.3886 -0.46289,2.36329 v 14.44921 H 88 v -26.26757 h 9.527344 v 4.41015 h 0.486328 c 0.211181,-0.66603 0.617697,-1.36469 1.21875,-2.0957 0.617298,-0.74726 1.446668,-1.38056 2.486328,-1.90039 1.0559,-0.51983 2.34605,-0.7793 3.87305,-0.7793 z m -69.566409,0.19531 v 6.23633 h 3.166015 c 0.860968,0 1.559629,-0.14509 2.095703,-0.4375 0.536075,-0.30865 0.926252,-0.69882 1.169922,-1.16992 0.259915,-0.48734 0.390625,-0.99908 0.390625,-1.53516 0,-0.9097 -0.324822,-1.64823 -0.974609,-2.21679 -0.633542,-0.58481 -1.544608,-0.87696 -2.730469,-0.87696 z m 124.490229,6.77344 c -0.87721,0 -1.54319,0.28495 -1.99804,0.85352 -0.43861,0.55232 -0.7399,1.25817 -0.90235,2.11914 -0.1462,0.84472 -0.21875,1.69762 -0.21875,2.55859 v 1.97266 c 0,0.7635 0.0654,1.57653 0.19532,2.4375 0.1462,0.86097 0.43834,1.5995 0.87695,2.21679 0.45485,0.60106 1.13717,0.90235 2.04687,0.90235 0.90971,0 1.58288,-0.30129 2.02149,-0.90235 0.43861,-0.60105 0.72356,-1.33239 0.85351,-2.19335 0.14621,-0.86097 0.21876,-1.6812 0.21876,-2.46094 v -1.97266 c -10e-6,-0.87721 -0.0797,-1.73926 -0.24219,-2.58398 -0.1462,-0.86097 -0.43835,-1.56682 -0.87696,-2.11914 -0.4386,-0.55232 -1.09739,-0.82813 -1.97461,-0.82813 z m -124.490229,5.50586 v 7.33594 h 3.484375 c 1.510755,0 2.59764,-0.36665 3.263672,-1.09766 0.682276,-0.74725 1.023437,-1.62369 1.023437,-2.63086 0,-0.69852 -0.154242,-1.31549 -0.462891,-1.85156 -0.308648,-0.55232 -0.787713,-0.98432 -1.4375,-1.29297 -0.633542,-0.30865 -1.444621,-0.46289 -2.435546,-0.46289 z m 34.162109,3.36328 c -0.893457,0 -1.617603,0.21045 -2.169922,0.63281 -0.552319,0.40612 -0.828125,0.96688 -0.828125,1.68164 0,0.74726 0.275806,1.32436 0.828125,1.73047 0.552319,0.38988 1.171239,0.58594 1.853516,0.58594 0.471095,0 0.924675,-0.0908 1.363281,-0.26953 0.438606,-0.19494 0.796106,-0.4616 1.072266,-0.80273 0.276159,-0.34114 0.414062,-0.74766 0.414062,-1.21875 v -2.33985 z m -4.605469,35.283205 c 1.689447,0 3.037752,0.406516 4.044922,1.21875 1.023415,0.812234 1.535156,1.891926 1.535156,3.240234 0,1.364553 -0.504548,2.453392 -1.511718,3.265625 -1.00717,0.79599 -2.362669,1.19336 -4.06836,1.19336 -1.689446,0 -3.037752,-0.39737 -4.044922,-1.19336 -1.00717,-0.812233 -1.511718,-1.901072 -1.511718,-3.265625 0,-1.364552 0.495403,-2.444245 1.486328,-3.240234 1.00717,-0.812234 2.364621,-1.21875 4.070312,-1.21875 z m 48.050779,0 c 1.68945,0 3.03775,0.406516 4.04492,1.21875 1.02342,0.812234 1.53516,1.891926 1.53516,3.240234 0,1.364553 -0.5026,2.453392 -1.50977,3.265625 -1.00716,0.79599 -2.36462,1.19336 -4.07031,1.19336 -1.68944,0 -3.03775,-0.39737 -4.04492,-1.19336 -1.00717,-0.812233 -1.50976,-1.901072 -1.50977,-3.265625 0,-1.364552 0.49541,-2.444245 1.48633,-3.240234 1.00717,-0.812234 2.36267,-1.21875 4.06836,-1.21875 z m 62.72071,2.875 h 9.89453 V -45.5625 h -9.89453 z m -150.441411,1.755859 h 14.449219 c 3.606318,0 6.531672,0.682323 8.773438,2.046875 2.241765,1.364553 3.882215,3.28081 4.921875,5.75 1.055904,2.452946 1.583984,5.327331 1.583984,8.625 0,3.346404 -0.537226,6.288097 -1.609375,8.822266 -1.072149,2.534169 -2.736131,4.506635 -4.994141,5.919922 -2.241765,1.397042 -5.134441,2.095703 -8.675781,2.095703 H 25.912109 Z m 101.074221,1.167969 h 9.47851 v 6.433594 h 5.6543 v 7.212891 h -5.6543 v 8.699218 c 0,0.909702 0.27581,1.575686 0.82813,1.998047 0.56856,0.406117 1.33258,0.609375 2.29101,0.609375 0.56857,0 1.06397,-0.0091 1.48633,-0.02539 0.43861,-0.01624 0.78892,-0.03258 1.04883,-0.04883 v 6.847657 c -0.35738,0.06498 -0.96716,0.146672 -1.82812,0.24414 -0.86097,0.08122 -1.88446,0.121094 -3.07032,0.121094 -2.33923,0 -4.28816,-0.235936 -5.84765,-0.707031 -1.55949,-0.471096 -2.73002,-1.258644 -3.50977,-2.363281 -0.77974,-1.104638 -1.16992,-2.59804 -1.16992,-4.482422 v -10.892578 h -3.99609 v -7.212891 h 4.28906 z m 31.48242,5.458985 c 2.24177,0 4.27239,0.30129 6.0918,0.902343 1.8194,0.601053 3.26574,1.591859 4.33789,2.972657 1.08839,1.380797 1.63281,3.248037 1.63281,5.603515 V -45.5625 h -9.21094 v -3.070312 h -0.48828 c -0.21118,0.536074 -0.57587,1.0733 -1.0957,1.609374 -0.51983,0.51983 -1.21849,0.957071 -2.09571,1.314454 -0.87721,0.341138 -1.96605,0.511718 -3.26562,0.511718 -2.56666,0 -4.66264,-0.689515 -6.28711,-2.070312 -1.62447,-1.380798 -2.43555,-3.34607 -2.43555,-5.896484 0,-2.452947 0.82023,-4.401881 2.46094,-5.847657 1.64071,-1.445776 4.00336,-2.169922 7.08984,-2.169922 h 5.62891 v -1.923828 c 0,-0.698521 -0.22679,-1.235747 -0.68164,-1.609375 -0.43861,-0.389872 -1.03204,-0.583984 -1.7793,-0.583984 -0.51983,0 -0.97536,0.09608 -1.36523,0.291016 -0.38987,0.194936 -0.68921,0.472695 -0.90039,0.830078 -0.21118,0.341138 -0.31641,0.729362 -0.31641,1.167968 h -9.21094 c 0.0325,-1.023414 0.22661,-2.070429 0.58399,-3.142578 0.37363,-1.072148 0.99059,-2.062954 1.85156,-2.972656 0.87721,-0.925947 2.08042,-1.664478 3.60742,-2.216797 1.54325,-0.568564 3.49218,-0.853515 5.84766,-0.853515 z m -73.490234,0.146484 c 1.25084,0 2.36321,0.177773 3.33789,0.535156 0.990925,0.357383 1.818344,0.869125 2.484375,1.535156 0.666032,0.649787 1.145096,1.422949 1.4375,2.316407 h 0.488281 v -4.167969 h 9.869138 v 26.195312 c 0,1.965606 -0.43004,3.573379 -1.29101,4.824219 -0.86097,1.267085 -1.982486,2.250698 -3.363284,2.949219 -1.380797,0.714766 -2.876152,1.210169 -4.484375,1.486328 -1.591978,0.276159 -3.134396,0.414062 -4.628906,0.414062 -2.956531,0 -5.360998,-0.399323 -7.212891,-1.195312 -1.835648,-0.795989 -3.183954,-1.833858 -4.044922,-3.117188 -0.860967,-1.283329 -1.300161,-2.657119 -1.316406,-4.11914 h 9.210938 c 0.129957,0.454851 0.365893,0.812351 0.707031,1.072266 0.357383,0.276159 0.780238,0.470271 1.267578,0.583984 0.503585,0.113713 1.038858,0.171875 1.607422,0.171875 1.267085,0 2.192535,-0.350307 2.777344,-1.048828 0.601053,-0.698521 0.902344,-1.712859 0.902343,-3.044922 v -3.533203 h -0.488281 c -0.211181,0.584808 -0.536003,1.129227 -0.974609,1.632812 -0.422362,0.503585 -0.941296,0.940826 -1.558594,1.314453 -0.601053,0.373628 -1.299714,0.667726 -2.095703,0.878907 -0.795989,0.194936 -1.672423,0.291015 -2.630859,0.291015 -1.900627,0 -3.541078,-0.469918 -4.921875,-1.412109 -1.380798,-0.942191 -2.453297,-2.348659 -3.216797,-4.216797 -0.747255,-1.868138 -1.121094,-4.19091 -1.121094,-6.96875 v -0.779297 c 0,-2.794084 0.373839,-5.116857 1.121094,-6.96875 0.7635,-1.868138 1.835999,-3.272652 3.216797,-4.214844 1.380797,-0.942191 3.021248,-1.414062 4.921875,-1.414062 z m -24.31836,0.21875 h 9.867188 V -45.5625 h -9.867188 z m 48.050784,0 h 9.86914 V -45.5625 h -9.86914 z m -72.564456,0.876953 v 17.521484 h 2.339844 c 1.218351,0 2.249027,-0.179726 3.09375,-0.537109 0.860968,-0.357383 1.550483,-0.892656 2.070313,-1.607422 0.519829,-0.73101 0.902814,-1.642075 1.146484,-2.730469 0.24367,-1.088393 0.365234,-2.355005 0.365234,-3.800781 0,-1.933116 -0.219596,-3.557228 -0.658203,-4.873047 -0.438606,-1.315819 -1.14446,-2.306624 -2.11914,-2.972656 -0.974681,-0.666032 -2.27397,-1 -3.898438,-1 z m 53.19336,6.361328 c -0.649787,0 -1.234077,0.194112 -1.753906,0.583985 -0.503585,0.373627 -0.902909,0.941578 -1.195313,1.705078 -0.276159,0.763499 -0.414063,1.730774 -0.414063,2.90039 v 1.388672 c 0,1.169617 0.137904,2.144084 0.414063,2.923828 0.292404,0.7635 0.691728,1.340597 1.195313,1.730469 0.519829,0.373628 1.104119,0.560547 1.753906,0.560547 0.666031,0 1.250321,-0.186919 1.753906,-0.560547 0.503585,-0.389872 0.900955,-0.966969 1.193359,-1.730469 0.292405,-0.779744 0.439453,-1.754211 0.439453,-2.923828 v -1.388672 c 10e-7,-1.185861 -0.147048,-2.160328 -0.439453,-2.923828 -0.292404,-0.7635 -0.689774,-1.33145 -1.193359,-1.705078 -0.503585,-0.373628 -1.087875,-0.560547 -1.753906,-0.560547 z m 68.958986,8.234375 c -0.89346,0 -1.6176,0.212404 -2.16992,0.634766 -0.55232,0.406117 -0.82813,0.966875 -0.82813,1.68164 0,0.747255 0.27581,1.322399 0.82813,1.728516 0.55232,0.389872 1.16928,0.585938 1.85156,0.585938 0.47109,-10e-7 0.92663,-0.08889 1.36523,-0.267579 0.43861,-0.194936 0.79611,-0.463549 1.07227,-0.804687 0.27616,-0.341138 0.41406,-0.747655 0.41406,-1.21875 v -2.339844 z"
         transform="matrix(0.26458333,0,0,0.26458333,40.263215,101.63482)" />
    </g>
  </g>
</svg>
